<svg width="33" height="31" viewBox="0 0 33 31" fill="none" xmlns="http://www.w3.org/2000/svg">
<path d="M30.875 25.75V27.4583C30.875 29.3375 29.3375 30.875 27.4583 30.875H3.54167C1.64542 30.875 0.125 29.3375 0.125 27.4583V3.54167C0.125 1.6625 1.64542 0.125 3.54167 0.125H27.4583C29.3375 0.125 30.875 1.6625 30.875 3.54167V5.25H15.5C13.6038 5.25 12.0833 6.7875 12.0833 8.66667V22.3333C12.0833 24.2125 13.6038 25.75 15.5 25.75H30.875ZM15.5 22.3333H32.5833V8.66667H15.5V22.3333ZM22.3333 18.0625C20.9154 18.0625 19.7708 16.9179 19.7708 15.5C19.7708 14.0821 20.9154 12.9375 22.3333 12.9375C23.7513 12.9375 24.8958 14.0821 24.8958 15.5C24.8958 16.9179 23.7513 18.0625 22.3333 18.0625Z" fill="#F12711"/>
</svg>
